<svg width="130" height="130" viewBox="0 0 130 130" fill="none" xmlns="http://www.w3.org/2000/svg">
<path d="M61.1002 61.1V54.6C61.1002 52.4461 62.8463 50.7 65.0002 50.7C67.1541 50.7 68.9002 52.4461 68.9002 54.6V61.1H75.4002C77.5541 61.1 79.3002 62.8461 79.3002 65C79.3002 67.1539 77.5541 68.9 75.4002 68.9H68.9002V75.4C68.9002 77.5539 67.1541 79.3 65.0002 79.3C62.8463 79.3 61.1002 77.5539 61.1002 75.4V68.9H54.6002C52.4463 68.9 50.7002 67.1539 50.7002 65C50.7002 62.8461 52.4463 61.1 54.6002 61.1H61.1002Z" fill="white"/>
<path fill-rule="evenodd" clip-rule="evenodd" d="M108.393 102.873L96.1229 90.6066C109.18 74.7754 108.304 51.3113 93.4966 36.5036C77.7585 20.7655 52.2419 20.7655 36.5038 36.5036C20.7657 52.2417 20.7657 77.7583 36.5038 93.4964C51.3117 108.304 74.7763 109.18 90.6075 96.1221L102.879 108.39C106.556 112.066 112.071 106.55 108.393 102.873ZM42.0192 42.019C54.7113 29.327 75.2891 29.327 87.9812 42.019C100.673 54.7111 100.673 75.2889 87.9812 87.981C75.2891 100.673 54.7113 100.673 42.0192 87.981C29.3272 75.2889 29.3272 54.7111 42.0192 42.019Z" fill="white"/>
</svg>
