<svg width="25" height="25" viewBox="0 0 25 25" fill="none" xmlns="http://www.w3.org/2000/svg">
<path d="M11.75 11.75V10.5C11.75 10.0858 12.0858 9.75 12.5 9.75C12.9142 9.75 13.25 10.0858 13.25 10.5V11.75H14.5C14.9142 11.75 15.25 12.0858 15.25 12.5C15.25 12.9142 14.9142 13.25 14.5 13.25H13.25V14.5C13.25 14.9142 12.9142 15.25 12.5 15.25C12.0858 15.25 11.75 14.9142 11.75 14.5V13.25H10.5C10.0858 13.25 9.75 12.9142 9.75 12.5C9.75 12.0858 10.0858 11.75 10.5 11.75H11.75Z" fill="#2E2E2E"/>
<path fill-rule="evenodd" clip-rule="evenodd" d="M20.8448 19.7834L18.4851 17.4243C20.9961 14.3799 20.8277 9.86756 17.9801 7.01992C14.9535 3.99336 10.0465 3.99336 7.01992 7.01992C3.99336 10.0465 3.99336 14.9535 7.01992 17.9801C9.8676 20.8278 14.38 20.9961 17.4245 18.485L19.7843 20.8442C20.4915 21.5512 21.552 20.4904 20.8448 19.7834ZM8.08058 8.08058C10.5214 5.63981 14.4786 5.63981 16.9194 8.08058C19.3602 10.5214 19.3602 14.4786 16.9194 16.9194C14.4786 19.3602 10.5214 19.3602 8.08058 16.9194C5.63981 14.4786 5.63981 10.5214 8.08058 8.08058Z" fill="#2E2E2E"/>
</svg>
