<svg width="86" height="32" viewBox="0 0 86 32" fill="none" xmlns="http://www.w3.org/2000/svg">
<path fill-rule="evenodd" clip-rule="evenodd" d="M0 0H31.7051V32H0V0ZM15.3121 19.4646C15.3121 18.8271 15.0884 18.3357 14.641 17.9904C14.2001 17.6451 13.4007 17.2965 12.2428 16.9445C11.0848 16.5926 10.1637 16.2008 9.4794 15.7691C8.17009 14.9391 7.51544 13.8566 7.51544 12.5219C7.51544 11.3531 7.98587 10.3902 8.92673 9.6332C9.87416 8.87617 11.1012 8.49766 12.6079 8.49766C13.608 8.49766 14.4995 8.68359 15.2824 9.05547C16.0654 9.42734 16.6806 9.95859 17.128 10.6492C17.5754 11.3332 17.7991 12.0936 17.7991 12.9303H15.3121C15.3121 12.1732 15.0752 11.5822 14.6015 11.1572C14.1343 10.7256 13.4632 10.5098 12.5882 10.5098C11.7723 10.5098 11.1374 10.6857 10.6834 11.0377C10.236 11.3896 10.0123 11.8811 10.0123 12.5119C10.0123 13.0432 10.2558 13.4881 10.7426 13.8467C11.2295 14.1986 12.0322 14.5439 13.1507 14.8826C14.2692 15.2146 15.1673 15.5965 15.845 16.0281C16.5227 16.4531 17.0194 16.9445 17.3352 17.5023C17.651 18.0535 17.8089 18.701 17.8089 19.4447C17.8089 20.6533 17.3484 21.6162 16.4273 22.3334C15.5127 23.0439 14.2692 23.3992 12.6967 23.3992C11.6572 23.3992 10.6999 23.2066 9.82482 22.8215C8.95633 22.4297 8.27865 21.8918 7.79178 21.2078C7.31148 20.5238 7.07133 19.727 7.07133 18.8172H9.56822C9.56822 19.6406 9.83798 20.2781 10.3775 20.7297C10.917 21.1813 11.6901 21.407 12.6967 21.407C13.5652 21.407 14.2166 21.2311 14.6508 20.8791C15.0916 20.5205 15.3121 20.049 15.3121 19.4646ZM22.8606 12.4223V9.80254H20.4624V12.4223H18.7057V14.2152H20.4624V20.3213C20.4624 22.3732 21.3835 23.3992 23.2257 23.3992C23.7324 23.3992 24.2587 23.3229 24.8048 23.1701V21.2975C24.5219 21.3639 24.2423 21.3971 23.9659 21.3971C23.5514 21.3971 23.2619 21.3074 23.0974 21.1281C22.9395 20.9422 22.8606 20.6434 22.8606 20.2316V14.2152H24.7456V12.4223H22.8606Z" fill="white"/>
<path d="M41.5336 10.0144L39.5505 9.53919C38.8942 9.38559 38.4329 9.13599 38.1666 8.79039C37.9002 8.43519 37.7671 7.93119 37.7671 7.27839C37.7671 6.29919 38.0334 5.57919 38.566 5.11839C39.0987 4.65759 39.9262 4.42719 41.0485 4.42719C41.5146 4.42719 41.9284 4.45119 42.2898 4.49919C42.6608 4.53759 43.0032 4.59999 43.317 4.68639V6.24159C42.7749 6.13599 42.3421 6.06879 42.0187 6.03999C41.6953 6.00159 41.3624 5.98239 41.02 5.98239C40.4493 5.98239 40.0451 6.07359 39.8073 6.25599C39.5695 6.42879 39.4506 6.73119 39.4506 7.16319C39.4506 7.41279 39.4982 7.60479 39.5933 7.73919C39.6979 7.86399 39.8691 7.95519 40.1069 8.01279L42.033 8.47359C42.48 8.57919 42.8129 8.68959 43.0317 8.80479C43.2505 8.91039 43.4312 9.04479 43.5739 9.20799C43.7165 9.39039 43.8212 9.61599 43.8877 9.88479C43.9638 10.1536 44.0019 10.4848 44.0019 10.8784C44.0019 11.896 43.7356 12.6256 43.2029 13.0672C42.6703 13.5088 41.8428 13.7296 40.7204 13.7296C40.1402 13.7296 39.579 13.6912 39.0369 13.6144C38.5042 13.5376 38.0857 13.4416 37.7813 13.3264V11.6992C38.1903 11.824 38.6516 11.9248 39.1653 12.0016C39.6884 12.0688 40.2068 12.1024 40.7204 12.1024C41.2816 12.1024 41.6716 12.0256 41.8903 11.872C42.1186 11.7088 42.2327 11.3968 42.2327 10.936C42.2327 10.648 42.1852 10.4416 42.0901 10.3168C42.0045 10.1824 41.819 10.0816 41.5336 10.0144Z" fill="white"/>
<path d="M49.3853 12.0448V13.4704C49.2236 13.5376 48.9954 13.5952 48.7005 13.6432C48.4151 13.7008 48.1536 13.7296 47.9158 13.7296C47.0122 13.7296 46.3654 13.5328 45.9754 13.1392C45.5855 12.736 45.3905 12.0688 45.3905 11.1376V7.88319H44.4488V6.48639H45.4333L45.6616 4.78719H47.0455V6.48639H49.2997V7.88319H47.0455V11.08C47.0455 11.5024 47.1358 11.7904 47.3166 11.944C47.4973 12.0976 47.8207 12.1744 48.2867 12.1744C48.4484 12.1744 48.6387 12.1648 48.8574 12.1456C49.0762 12.1168 49.2522 12.0832 49.3853 12.0448Z" fill="white"/>
<path d="M51.7106 13.6H50.0984V12.0016H51.7106V13.6Z" fill="white"/>
<path d="M59.1645 11.9728V13.6H53.1152V4.57119H59.0361V6.12639H54.8273V8.25759H58.5082V9.74079H54.8273V11.9728H59.1645Z" fill="white"/>
<path d="M64.7699 6.48639H66.5819L64.0137 13.6H62.1162L59.5338 6.48639H61.36L63.0721 12.0736L64.7699 6.48639Z" fill="white"/>
<path d="M69.0916 10.6768V13.6H67.4366V4.02399H69.0916V9.32319H69.6908L71.8023 6.48639H73.7712L71.0747 9.92799L73.9139 13.6H71.8737L69.7051 10.6768H69.0916Z" fill="white"/>
<path d="M76.1834 13.7296C75.4605 13.7296 74.9279 13.552 74.5855 13.1968C74.2526 12.832 74.0861 12.2656 74.0861 11.4976C74.0861 10.7104 74.2859 10.1536 74.6853 9.82719C75.0943 9.50079 75.7934 9.33759 76.7826 9.33759C77.0585 9.33759 77.3391 9.35199 77.6244 9.38079C77.9097 9.40959 78.157 9.44799 78.3663 9.49599V8.89119C78.3663 8.51679 78.2522 8.24319 78.0239 8.07039C77.7956 7.89759 77.4342 7.81119 76.9396 7.81119C76.4925 7.81119 76.093 7.82559 75.7411 7.85439C75.3987 7.88319 75.0706 7.93119 74.7567 7.99839V6.60159C75.1181 6.51519 75.5081 6.45279 75.9266 6.41439C76.3546 6.36639 76.8587 6.34239 77.4389 6.34239C78.3045 6.34239 78.9513 6.54399 79.3793 6.94719C79.8073 7.34079 80.0213 7.93599 80.0213 8.73279V13.6H78.4947L78.4234 12.9664H78.3948C78.0905 13.1968 77.7385 13.384 77.3391 13.528C76.9491 13.6624 76.5639 13.7296 76.1834 13.7296ZM76.9824 10.5328C76.4687 10.5328 76.1168 10.5952 75.9266 10.72C75.7364 10.8352 75.6412 11.0608 75.6412 11.3968C75.6412 11.7232 75.7173 11.9584 75.8695 12.1024C76.0312 12.2368 76.3023 12.304 76.6828 12.304C76.9586 12.304 77.2487 12.2656 77.5531 12.1888C77.8669 12.1024 78.138 11.9968 78.3663 11.872V10.648C78.138 10.6096 77.9097 10.5808 77.6815 10.5616C77.4627 10.5424 77.2297 10.5328 76.9824 10.5328Z" fill="white"/>
<path d="M85.8756 12.0448V13.4704C85.7139 13.5376 85.4856 13.5952 85.1907 13.6432C84.9054 13.7008 84.6438 13.7296 84.406 13.7296C83.5024 13.7296 82.8557 13.5328 82.4657 13.1392C82.0757 12.736 81.8807 12.0688 81.8807 11.1376V7.88319H80.9391V6.48639H81.9235L82.1518 4.78719H83.5357V6.48639H85.79V7.88319H83.5357V11.08C83.5357 11.5024 83.6261 11.7904 83.8068 11.944C83.9875 12.0976 84.3109 12.1744 84.777 12.1744C84.9387 12.1744 85.1289 12.1648 85.3477 12.1456C85.5664 12.1168 85.7424 12.0832 85.8756 12.0448Z" fill="white"/>
<path d="M40.9772 28H38.1095V18.9712H40.9772C41.8903 18.9712 42.6132 19.048 43.1458 19.2016C43.688 19.3552 44.1208 19.6 44.4442 19.936C44.7676 20.272 45.0006 20.728 45.1433 21.304C45.2955 21.8704 45.3715 22.5952 45.3715 23.4784C45.3715 25.0432 45.0244 26.1904 44.33 26.92C43.6357 27.64 42.5181 28 40.9772 28ZM43.1316 21.1888C42.9509 20.9488 42.6988 20.7808 42.3754 20.6848C42.052 20.5792 41.586 20.5264 40.9772 20.5264H39.8216V26.3728H40.9772C42.0045 26.3728 42.6988 26.1616 43.0602 25.7392C43.4217 25.3168 43.6024 24.5632 43.6024 23.4784C43.6024 22.9024 43.5644 22.432 43.4883 22.0672C43.4122 21.7024 43.2933 21.4096 43.1316 21.1888Z" fill="white"/>
<path d="M52.2129 26.2576V27.6112C51.9751 27.7552 51.5994 27.88 51.0858 27.9856C50.5817 28.0816 50.0538 28.1296 49.5021 28.1296C48.3798 28.1296 47.5713 27.8416 47.0767 27.2656C46.5916 26.6896 46.3491 25.7392 46.3491 24.4144C46.3491 23.1376 46.6059 22.2064 47.1195 21.6208C47.6331 21.0352 48.4464 20.7424 49.5592 20.7424C50.634 20.7424 51.3949 20.968 51.842 21.4192C52.289 21.8704 52.5125 22.6432 52.5125 23.7376C52.5125 23.9392 52.5078 24.1264 52.4983 24.2992C52.4888 24.4624 52.4697 24.6928 52.4412 24.9904H48.0183C48.0279 25.5856 48.1563 26.0032 48.4036 26.2432C48.6604 26.4832 49.1122 26.6032 49.759 26.6032C50.187 26.6032 50.6293 26.5696 51.0858 26.5024C51.5424 26.4352 51.9181 26.3536 52.2129 26.2576ZM49.5592 22.1968C48.979 22.1968 48.5748 22.312 48.3465 22.5424C48.1277 22.7728 48.0183 23.1904 48.0183 23.7952H51.0002V23.4928C50.9907 23.0032 50.8813 22.6672 50.6721 22.4848C50.4628 22.2928 50.0919 22.1968 49.5592 22.1968Z" fill="white"/>
<path d="M56.4078 22.1824C55.9037 22.1824 55.5566 22.2352 55.3663 22.3408C55.1856 22.4368 55.0953 22.6528 55.0953 22.9888C55.0953 23.152 55.1333 23.2768 55.2094 23.3632C55.2855 23.44 55.4139 23.4928 55.5946 23.5216L57.3495 23.7808C57.9107 23.8576 58.3006 24.0352 58.5194 24.3136C58.7477 24.592 58.8618 25.0336 58.8618 25.6384C58.8618 26.512 58.6621 27.1456 58.2626 27.5392C57.8631 27.9328 57.183 28.1296 56.2224 28.1296C55.6707 28.1296 55.1666 28.1056 54.71 28.0576C54.2535 28.0096 53.8683 27.9376 53.5544 27.8416V26.3584C53.8492 26.4352 54.2107 26.5024 54.6387 26.56C55.0667 26.608 55.4995 26.632 55.937 26.632C56.4316 26.632 56.7645 26.5696 56.9357 26.4448C57.1164 26.32 57.2068 26.0848 57.2068 25.7392C57.2068 25.5664 57.164 25.4368 57.0784 25.3504C56.9928 25.2544 56.8501 25.192 56.6504 25.1632L54.867 24.904C54.3819 24.8368 54.0252 24.6544 53.7969 24.3568C53.5687 24.0496 53.4545 23.608 53.4545 23.032C53.4545 22.2544 53.6875 21.6784 54.1536 21.304C54.6292 20.9296 55.3473 20.7424 56.308 20.7424C56.6979 20.7424 57.0546 20.752 57.378 20.7712C57.7014 20.7904 58.0343 20.8288 58.3767 20.8864V22.312C58.1294 22.2736 57.8298 22.2448 57.4779 22.2256C57.1355 22.1968 56.7788 22.1824 56.4078 22.1824Z" fill="white"/>
<path d="M61.7499 19.8784H59.9951V18.424H61.7499V19.8784ZM61.7071 28H60.0521V20.8864H61.7071V28Z" fill="white"/>
<path d="M66.2814 30.3328C65.7868 30.3328 65.3159 30.2992 64.8689 30.232C64.4314 30.1744 64.0794 30.0928 63.8131 29.9872V28.5472C64.0319 28.624 64.36 28.6864 64.7976 28.7344C65.2446 28.792 65.6869 28.8208 66.1244 28.8208C66.7332 28.8208 67.1517 28.7104 67.3799 28.4896C67.6177 28.2688 67.7414 27.8752 67.7509 27.3088V26.9056C67.399 27.0976 67.0328 27.2464 66.6523 27.352C66.2718 27.4576 65.8961 27.5104 65.5252 27.5104C64.6026 27.5104 63.9463 27.2512 63.5563 26.7328C63.1663 26.2144 62.9713 25.3456 62.9713 24.1264C62.9713 22.9072 63.2329 22.0384 63.756 21.52C64.2887 21.0016 65.1828 20.7424 66.4383 20.7424C66.9234 20.7424 67.456 20.7712 68.0362 20.8288C68.6259 20.8864 69.0825 20.9488 69.4059 21.016V26.8048C69.4059 28.1104 69.1729 29.0224 68.7068 29.5408C68.2407 30.0688 67.4322 30.3328 66.2814 30.3328ZM66.4383 22.24C65.6679 22.24 65.1733 22.36 64.9545 22.6C64.7357 22.8304 64.6263 23.3392 64.6263 24.1264C64.6263 24.856 64.7167 25.3456 64.8974 25.5952C65.0877 25.8352 65.4824 25.9552 66.0816 25.9552C66.3384 25.9552 66.6095 25.9264 66.8948 25.8688C67.1897 25.8016 67.475 25.7152 67.7509 25.6096V22.3696C67.5511 22.3312 67.3371 22.3024 67.1089 22.2832C66.8901 22.2544 66.6666 22.24 66.4383 22.24Z" fill="white"/>
<path d="M72.6166 28H70.9616V20.8864H72.3883L72.4596 21.6064H72.5024C72.8354 21.3088 73.192 21.0928 73.5725 20.9584C73.9625 20.8144 74.419 20.7424 74.9422 20.7424C75.7221 20.7424 76.3166 20.9392 76.7256 21.3328C77.1346 21.7264 77.3391 22.3072 77.3391 23.0752V28H75.6841V23.2912C75.6841 22.9456 75.5699 22.6864 75.3416 22.5136C75.1229 22.3312 74.7947 22.24 74.3572 22.24C74.0433 22.24 73.7389 22.2832 73.4441 22.3696C73.1492 22.4464 72.8734 22.5664 72.6166 22.7296V28Z" fill="white"/>
</svg>
